<?xml version="1.0" standalone="no"?>
<!DOCTYPE svg PUBLIC "-//W3C//DTD SVG 20010904//EN"
 "http://www.w3.org/TR/2001/REC-SVG-20010904/DTD/svg10.dtd">
<svg version="1.0" xmlns="http://www.w3.org/2000/svg"
 width="70.000000pt" height="70.000000pt" viewBox="0 0 70.000000 70.000000"
 preserveAspectRatio="xMidYMid meet">
<metadata>
Created by potrace 1.11, written by Peter Selinger 2001-2013
</metadata>
<g transform="translate(0.000000,70.000000) scale(0.100000,-0.100000)"
fill="#000000" stroke="none">
<path d="M393 658 c-37 -38 -42 -50 -49 -105 -3 -35 -11 -63 -15 -63 -5 0 -8
-3 -7 -7 6 -22 -75 -123 -99 -123 -6 0 -13 -5 -15 -10 -2 -6 -13 -12 -26 -13
-12 0 -22 -4 -22 -7 0 -3 -16 -4 -35 -2 -19 2 -35 8 -35 14 0 5 5 6 12 2 7 -4
8 -3 4 4 -4 7 -16 12 -27 12 -12 0 -19 7 -19 20 0 11 -6 19 -12 18 -8 -2 -12
6 -10 21 3 21 -11 40 -30 41 -5 0 -8 -47 -8 -105 0 -89 2 -104 15 -99 8 4 15
1 15 -4 0 -14 50 -68 51 -56 0 5 4 -1 9 -13 5 -13 16 -23 25 -23 8 0 14 -3 14
-7 -4 -22 3 -32 16 -27 12 5 15 -5 15 -60 l0 -66 39 0 c32 0 39 3 37 18 -2 9
-9 17 -16 17 -7 0 -15 6 -18 13 -3 9 3 12 14 10 10 -2 19 2 19 7 0 10 41 55
50 55 3 0 5 -7 5 -15 0 -8 9 -15 20 -15 16 0 19 -6 17 -42 -2 -43 -2 -43 36
-46 27 -2 37 1 37 11 0 8 -7 17 -15 21 -18 6 -15 108 3 114 7 2 12 13 12 23 0
11 4 18 9 15 12 -8 29 16 26 36 -2 12 3 18 16 18 13 0 19 7 19 23 0 26 15 52
30 52 5 0 10 4 9 8 0 10 40 46 53 48 4 1 12 2 18 3 18 2 33 25 27 40 -7 18
-62 22 -72 6 -3 -5 -15 -15 -25 -20 -18 -10 -19 -8 -10 15 6 14 27 46 47 71
21 25 38 50 38 57 0 7 24 16 58 21 l57 8 0 49 c0 45 -3 51 -27 61 -16 6 -75
12 -133 15 l-106 3 -41 -42z"/>
</g>
</svg>
